<?xml version="1.0" encoding="UTF-8" standalone="no" ?>
<!DOCTYPE svg PUBLIC "-//W3C//DTD SVG 1.1//EN" "http://www.w3.org/Graphics/SVG/1.1/DTD/svg11.dtd">
<svg xmlns="http://www.w3.org/2000/svg" xmlns:xlink="http://www.w3.org/1999/xlink" version="1.1" width="6000" height="6000" viewBox="-922.5 -922.5 6000 6000" xml:space="preserve">
<desc>Created with Fabric.js 5.2.4</desc>
<defs>
</defs>
<rect x="0" y="0" width="100%" height="100%" fill="transparent"></rect>
<g transform="matrix(1 0 0 1 3000 3000)" id="84fe552f-402d-44a3-9b36-b1269eb1a155"  >
<rect style="stroke: none; stroke-width: 1; stroke-dasharray: none; stroke-linecap: butt; stroke-dashoffset: 0; stroke-linejoin: miter; stroke-miterlimit: 4; fill: rgb(255,255,255); fill-rule: nonzero; opacity: 1; visibility: hidden;" vector-effect="non-scaling-stroke"  x="-3000" y="-3000" rx="0" ry="0" width="6000" height="6000" />
</g>
<g transform="matrix(0 0 0 0 0 0)" id="31f0b598-bf36-4d6b-9da7-94dec1bac6c0"  >
</g>
<g transform="matrix(60.91 0 0 60.91 2070.75 2064.68)" id="a49a58c0-eaad-412c-b72f-011353dff6f9"  >
<circle style="stroke: rgb(0,0,0); stroke-width: 0; stroke-dasharray: none; stroke-linecap: butt; stroke-dashoffset: 0; stroke-linejoin: miter; stroke-miterlimit: 4; fill: rgb(254,251,251); fill-rule: nonzero; opacity: 1;" vector-effect="non-scaling-stroke"  cx="0" cy="0" r="35" />
</g>
<g transform="matrix(6.13 0 0 6.07 2177.5 2224.62)"  >
<g style="" vector-effect="non-scaling-stroke"   >
		<g transform="matrix(0.13 0 0 -0.13 -137.56 -108.4)"  >
<path style="stroke: none; stroke-width: 1; stroke-dasharray: none; stroke-linecap: butt; stroke-dashoffset: 0; stroke-linejoin: miter; stroke-miterlimit: 4; fill: rgb(0,0,0); fill-rule: nonzero; opacity: 1;" vector-effect="non-scaling-stroke"  transform=" translate(-1545.21, -3403.45)" d="M 1489 3942 C 1480 3938 1459 3918 1441 3898 C 1422 3876 1374 3844 1323 3818 C 1213 3763 1173 3718 1131 3604 C 1098 3511 1093 3472 1112 3419 C 1126 3375 1203 3254 1242 3214 L 1272 3182 L 1241 3067 C 1224 3003 1210 2938 1210 2921 C 1210 2876 1240 2853 1290 2860 C 1322 2864 1337 2893 1365 3000 C 1396 3123 1397 3124 1471 3090 C 1529 3064 1630 3064 1685 3089 C 1802 3142 1861 3272 1825 3397 C 1816 3429 1808 3457 1809 3460 C 1810 3463 1845 3477 1888 3491 C 1977 3521 2002 3548 1984 3597 C 1968 3644 1933 3648 1835 3616 C 1788 3601 1746 3592 1740 3595 C 1735 3598 1730 3614 1730 3629 C 1730 3644 1723 3681 1714 3711 C 1688 3801 1642 3865 1566 3921 C 1526 3951 1516 3953 1489 3942 z M 1563 3719 C 1580 3686 1593 3640 1597 3605 C 1602 3561 1616 3520 1652 3450 C 1695 3368 1701 3349 1697 3312 C 1689 3240 1625 3191 1555 3204 C 1530 3209 1509 3224 1479 3260 C 1444 3301 1431 3310 1404 3310 C 1386 3310 1368 3305 1365 3300 C 1355 3284 1341 3298 1288 3379 C 1232 3464 1231 3482 1268 3578 C 1296 3650 1298 3652 1395 3701 C 1442 3724 1487 3752 1497 3762 C 1520 3788 1531 3781 1563 3719 z" stroke-linecap="round" />
</g>
		<g transform="matrix(0.13 0 0 -0.13 -8.28 -45.51)"  >
<path style="stroke: none; stroke-width: 1; stroke-dasharray: none; stroke-linecap: butt; stroke-dashoffset: 0; stroke-linejoin: miter; stroke-miterlimit: 4; fill: rgb(0,0,0); fill-rule: nonzero; opacity: 1;" vector-effect="non-scaling-stroke"  transform=" translate(-2565.78, -2919.71)" d="M 2005 3944 C 1994 3941 1930 3921 1862 3898 C 1770 3868 1735 3852 1723 3834 C 1703 3803 1713 3765 1746 3743 C 1771 3727 1776 3728 1904 3770 C 2005 3803 2044 3811 2072 3806 C 2109 3799 2143 3769 2154 3733 C 2158 3720 2135 3623 2090 3471 C 2021 3233 2013 3196 2028 3174 C 2032 3168 2139 3092 2265 3005 C 2392 2918 2497 2845 2499 2844 C 2501 2842 2483 2818 2460 2790 C 2429 2754 2417 2729 2417 2708 C 2417 2655 2482 2621 2522 2653 C 2530 2659 2619 2766 2720 2890 C 2820 3014 2911 3123 2922 3133 C 2933 3142 2956 3150 2973 3150 C 2990 3150 3191 3098 3419 3034 C 3869 2908 3883 2902 3883 2839 C 3883 2802 3843 2760 3807 2760 C 3795 2760 3613 2805 3402 2859 C 3192 2914 3010 2956 2999 2953 C 2986 2949 2946 2898 2894 2819 C 2793 2663 2777 2633 2783 2609 C 2790 2583 2754 2578 2551 2577 C 2307 2577 2119 2607 1871 2686 C 1768 2718 1760 2722 1743 2757 C 1733 2777 1717 2798 1708 2804 C 1696 2811 1612 2799 1403 2761 C 1094 2705 1079 2705 1046 2752 C 1021 2788 1026 2822 1090 3040 C 1123 3153 1150 3255 1150 3268 C 1150 3320 1072 3351 1036 3311 C 1027 3301 1010 3259 998 3219 C 987 3178 976 3143 974 3141 C 966 3132 601 3407 600 3424 C 600 3428 610 3430 623 3427 C 635 3424 720 3411 812 3399 C 955 3379 981 3378 995 3390 C 1041 3428 1030 3492 976 3509 C 959 3514 824 3535 675 3556 L 406 3594 L 288 3682 C 163 3775 129 3788 96 3751 C 85 3739 80 3720 82 3699 C 85 3669 99 3655 200 3577 L 314 3488 L 383 3357 C 737 2682 1277 2181 1856 1991 C 2376 1820 2973 1875 3535 2144 C 3981 2358 4402 2707 4741 3143 C 4820 3245 4840 3263 4922 3316 C 5035 3387 5050 3402 5050 3439 C 5050 3468 5012 3510 4986 3510 C 4979 3510 4922 3477 4858 3437 L 4742 3364 L 4344 3307 C 4124 3275 3935 3245 3923 3240 C 3882 3223 3880 3141 3920 3120 C 3936 3112 3999 3118 4186 3145 C 4320 3165 4435 3180 4441 3178 C 4451 3175 4260 3065 4153 3011 C 4103 2986 4089 2951 4111 2911 C 4138 2864 4175 2871 4328 2950 L 4465 3021 L 4370 2925 C 3791 2335 3139 2029 2461 2030 C 2101 2031 1762 2134 1450 2338 C 1323 2421 1142 2565 1151 2575 C 1153 2577 1248 2595 1361 2615 L 1567 2653 L 1673 2611 C 1871 2534 2116 2472 2315 2450 C 2653 2412 3112 2473 3536 2611 L 3662 2652 L 3731 2635 C 3789 2621 3808 2620 3848 2629 C 3986 2664 4056 2804 3999 2930 C 3974 2986 3955 3007 3910 3030 C 3863 3054 3015 3290 2976 3290 C 2925 3290 2871 3271 2837 3240 C 2820 3225 2758 3153 2700 3082 C 2642 3010 2590 2953 2584 2955 C 2574 2958 2183 3224 2170 3236 C 2168 3239 2194 3338 2228 3458 C 2266 3588 2290 3693 2290 3720 C 2289 3804 2234 3886 2155 3921 C 2112 3940 2037 3951 2005 3944 z M 795 3096 C 869 3042 930 2993 930 2988 C 930 2970 898 2865 890 2857 C 879 2844 701 3081 625 3210 C 614 3228 609 3232 795 3096 z M 3249 2758 C 3384 2724 3409 2715 3389 2708 C 3348 2692 3120 2638 3017 2620 L 2920 2602 L 2942 2639 C 3026 2775 3053 2811 3068 2805 C 3077 2802 3158 2781 3249 2758 z" stroke-linecap="round" />
</g>
		<g transform="matrix(0.13 0 0 -0.13 -192.25 169.64)"  >
<path style="stroke: none; stroke-width: 1; stroke-dasharray: none; stroke-linecap: butt; stroke-dashoffset: 0; stroke-linejoin: miter; stroke-miterlimit: 4; fill: rgb(0,0,0); fill-rule: nonzero; opacity: 1;" vector-effect="non-scaling-stroke"  transform=" translate(-1126.5, -1330)" d="M 1042 1384 C 1026 1373 1020 1359 1020 1330 C 1020 1277 1046 1260 1126 1260 C 1202 1260 1233 1280 1233 1330 C 1233 1380 1202 1400 1126 1400 C 1086 1400 1057 1394 1042 1384 z" stroke-linecap="round" />
</g>
		<g transform="matrix(0.13 0 0 -0.13 -20.88 169.64)"  >
<path style="stroke: none; stroke-width: 1; stroke-dasharray: none; stroke-linecap: butt; stroke-dashoffset: 0; stroke-linejoin: miter; stroke-miterlimit: 4; fill: rgb(0,0,0); fill-rule: nonzero; opacity: 1;" vector-effect="non-scaling-stroke"  transform=" translate(-2435.63, -1330)" d="M 1399 1382 C 1384 1369 1377 1352 1377 1330 C 1377 1308 1384 1291 1399 1278 C 1421 1261 1466 1260 2435 1260 C 3404 1260 3449 1261 3471 1278 C 3502 1304 3502 1356 3471 1382 C 3449 1399 3404 1400 2435 1400 C 1466 1400 1421 1399 1399 1382 z" stroke-linecap="round" />
</g>
		<g transform="matrix(0.13 0 0 -0.13 158.9 169.7)"  >
<path style="stroke: none; stroke-width: 1; stroke-dasharray: none; stroke-linecap: butt; stroke-dashoffset: 0; stroke-linejoin: miter; stroke-miterlimit: 4; fill: rgb(0,0,0); fill-rule: nonzero; opacity: 1;" vector-effect="non-scaling-stroke"  transform=" translate(-3760.24, -1329.57)" d="M 3682 1388 C 3639 1367 3640 1292 3685 1272 C 3699 1265 3736 1260 3766 1260 C 3811 1260 3825 1264 3845 1285 C 3859 1298 3870 1319 3870 1330 C 3870 1342 3859 1362 3845 1375 C 3825 1396 3812 1400 3763 1399 C 3731 1399 3695 1394 3682 1388 z" stroke-linecap="round" />
</g>
</g>
</g>
</svg>