<svg xmlns="http://www.w3.org/2000/svg" version="1.1" xmlns:xlink="http://www.w3.org/1999/xlink" xmlns:svgjs="http://svgjs.dev/svgjs" viewBox="0 0 800 800"><defs><filter id="bbblurry-filter" x="-100%" y="-100%" width="400%" height="400%" filterUnits="objectBoundingBox" primitiveUnits="userSpaceOnUse" color-interpolation-filters="sRGB">
	<feGaussianBlur stdDeviation="40" x="0%" y="0%" width="100%" height="100%" in="SourceGraphic" edgeMode="none" result="blur"></feGaussianBlur></filter></defs><g filter="url(#bbblurry-filter)"><ellipse rx="150" ry="150" cx="75.04348163704606" cy="63.844525082573114" fill="#ffeedd"></ellipse><ellipse rx="150" ry="150" cx="670.9584769204025" cy="221.74898764725128" fill="#ffeedd"></ellipse><ellipse rx="150" ry="150" cx="154.6999881604579" cy="627.28955078125" fill="#ffeedd"></ellipse><ellipse rx="150" ry="150" cx="61.092934493619055" cy="355.040992616983" fill="#ffeedd"></ellipse><ellipse rx="150" ry="150" cx="363.62939836591954" cy="90.41525220621315" fill="#ffeedd"></ellipse><ellipse rx="150" ry="150" cx="425.92000719639645" cy="875.9703282860562" fill="#ffd8be"></ellipse><ellipse rx="150" ry="150" cx="-2.184134198732977" cy="-59.80240187719852" fill="#ffd8be"></ellipse><ellipse rx="150" ry="150" cx="384.7032922874571" cy="528.4919626925004" fill="#ffeedd"></ellipse><ellipse rx="150" ry="150" cx="624.3826897905758" cy="661.0355288520534" fill="#ffeedd"></ellipse><ellipse rx="150" ry="150" cx="635.2140908765543" cy="447.3358882884081" fill="#ffeedd"></ellipse><ellipse rx="150" ry="150" cx="278.81698336776014" cy="243.74742102498155" fill="#ffeedd"></ellipse><ellipse rx="150" ry="150" cx="660.9587589283889" cy="148.30742801047123" fill="#ffeedd"></ellipse><ellipse rx="150" ry="150" cx="415.073833365715" cy="390.7692006695333" fill="#ffd8be"></ellipse><ellipse rx="150" ry="150" cx="406.75598464087045" cy="431.11658769377857" fill="#ffeedd"></ellipse></g></svg>